<?xml version="1.0" standalone="no"?>
<!DOCTYPE svg PUBLIC "-//W3C//DTD SVG 20010904//EN"
 "http://www.w3.org/TR/2001/REC-SVG-20010904/DTD/svg10.dtd">
<svg version="1.0" xmlns="http://www.w3.org/2000/svg"
 width="2000.000000pt" height="2000.000000pt" viewBox="0 0 2000.000000 2000.000000"
 preserveAspectRatio="xMidYMid meet">

<g transform="translate(0.000000,2000.000000) scale(0.100000,-0.100000)"
fill="#000000" stroke="none">
<path d="M9765 19994 c-845 -32 -1483 -118 -2205 -299 -1568 -393 -2992 -1150
-4230 -2249 -172 -153 -621 -601 -772 -771 -1456 -1640 -2315 -3613 -2513
-5775 -52 -564 -52 -1236 0 -1800 113 -1237 437 -2394 981 -3505 394 -806 908
-1567 1532 -2270 151 -170 600 -618 772 -771 1639 -1455 3608 -2311 5770
-2509 564 -52 1236 -52 1800 0 1287 118 2495 465 3635 1046 767 390 1466 869
2135 1463 172 153 621 601 772 771 1003 1129 1713 2398 2139 3820 276 921 412
1865 412 2855 0 990 -136 1934 -412 2855 -426 1422 -1136 2691 -2139 3820
-151 170 -600 618 -772 771 -1650 1465 -3631 2321 -5815 2513 -279 25 -861 43
-1090 35z m5234 -3850 c37 -31 53 -81 40 -127 -5 -18 -656 -871 -1544 -2022
-1057 -1370 -1537 -1999 -1541 -2021 -8 -42 20 -100 57 -119 24 -13 253 -15
1679 -15 1802 0 1682 4 1729 -56 29 -37 28 -101 -1 -143 -13 -17 -885 -860
-1938 -1873 -1053 -1013 -2149 -2067 -2435 -2342 -1947 -1875 -4781 -4601
-4846 -4662 -43 -40 -90 -76 -105 -80 -66 -17 -154 50 -154 116 0 15 25 128
56 251 30 123 82 332 114 464 32 132 111 452 175 710 64 259 143 578 175 710
32 132 107 434 165 670 136 553 268 1087 355 1440 38 154 127 516 199 805 71
289 132 541 136 562 9 46 -14 97 -54 121 -27 16 -125 17 -1388 17 -1329 0
-1359 0 -1390 20 -59 35 -78 102 -47 163 9 18 669 1173 1467 2567 798 1394
1734 3030 2080 3635 346 605 647 1130 669 1168 l39 67 3139 0 3138 0 31 -26z"/>
</g>
</svg>
