<?xml version="1.0" standalone="no"?>
<!DOCTYPE svg PUBLIC "-//W3C//DTD SVG 20010904//EN"
 "http://www.w3.org/TR/2001/REC-SVG-20010904/DTD/svg10.dtd">
<svg version="1.0" xmlns="http://www.w3.org/2000/svg"
 width="396.000000pt" height="243.000000pt" viewBox="0 0 396.000000 243.000000"
 preserveAspectRatio="xMidYMid meet">

<g transform="translate(0.000000,243.000000) scale(0.100000,-0.100000)"
fill="#000000" stroke="none">
<path d="M975 1904 c-127 -30 -219 -68 -299 -123 -45 -30 -135 -121 -169 -170
-148 -215 -166 -471 -50 -711 84 -174 264 -321 448 -364 93 -22 169 -30 161
-17 -4 6 -2 11 4 11 6 0 21 10 34 23 13 12 40 36 60 54 20 18 36 34 36 36 0 2
-38 1 -85 -1 -113 -6 -193 11 -290 61 -156 81 -265 224 -301 397 -52 246 80
509 311 620 296 142 595 30 931 -348 48 -53 90 -98 95 -100 5 -2 27 15 50 39
l40 42 -28 31 c-16 17 -74 80 -129 140 -170 187 -333 301 -509 356 -68 21
-260 36 -310 24z"/>
</g>
</svg>
