<?xml version="1.0" standalone="no"?>
<!DOCTYPE svg PUBLIC "-//W3C//DTD SVG 20010904//EN"
 "http://www.w3.org/TR/2001/REC-SVG-20010904/DTD/svg10.dtd">
<svg version="1.0" xmlns="http://www.w3.org/2000/svg"
 width="4827.000000pt" height="4827.000000pt" viewBox="0 0 4827.000000 4827.000000"
 preserveAspectRatio="xMidYMid meet">

<g transform="translate(0.000000,4827.000000) scale(0.100000,-0.100000)"
fill="#000000" stroke="none">
<path d="M23550 44880 c-1291 -56 -2500 -253 -3725 -606 -2935 -846 -5638
-2543 -7651 -4804 -1129 -1268 -1987 -2613 -2649 -4150 -51 -118 -136 -314
-188 -435 -641 -1488 -998 -3257 -1107 -5480 -33 -687 -45 -1970 -30 -3349 l5
-470 -420 3 c-941 5 -1464 -66 -1975 -269 -534 -213 -1056 -603 -1426 -1067
-260 -324 -481 -735 -619 -1148 -235 -704 -254 -1469 -54 -2153 218 -744 655
-1378 1281 -1858 57 -44 803 -546 1658 -1117 l1555 -1038 6 -2682 c6 -2943 1
-2708 64 -3051 207 -1119 894 -2085 2021 -2843 587 -394 1211 -692 2007 -958
376 -126 415 -145 592 -286 169 -135 425 -381 708 -679 335 -353 606 -622 802
-795 793 -700 1542 -1094 2355 -1239 227 -40 415 -56 677 -56 504 0 911 69
1463 248 497 162 730 215 1004 228 227 11 338 -18 621 -161 99 -50 293 -158
430 -240 686 -409 1032 -585 1445 -735 1126 -411 2333 -412 3452 -5 420 153
758 325 1423 723 614 368 779 433 1065 418 268 -14 548 -78 1036 -236 313
-102 627 -172 969 -217 201 -26 751 -26 945 0 1099 149 2072 718 3096 1810
265 283 704 726 832 840 119 106 235 195 302 231 26 14 118 44 206 66 1068
274 1985 705 2669 1253 926 743 1476 1708 1624 2849 11 84 25 214 31 287 6 88
10 1017 10 2662 l0 2528 803 537 c2643 1770 2517 1682 2741 1893 462 434 776
927 970 1520 118 360 166 671 166 1076 0 587 -124 1124 -380 1650 -181 370
-396 672 -684 961 -397 397 -847 682 -1334 843 -484 161 -954 215 -1837 210
l-440 -3 1 49 c1 28 5 581 9 1230 10 1524 -6 2226 -71 3145 -135 1924 -490
3534 -1079 4895 -48 110 -136 313 -195 450 -671 1552 -1569 2940 -2737 4227
-299 329 -829 853 -1183 1169 -1698 1516 -3780 2706 -5933 3390 -1310 416
-2550 645 -3952 729 -229 14 -1133 20 -1375 10z m1227 -1450 c2502 -114 4873
-846 6995 -2162 1300 -806 2483 -1834 3479 -3023 1072 -1280 1926 -2761 2497
-4330 466 -1280 742 -2598 837 -3985 30 -450 35 -868 35 -3317 l0 -2472 1358
-4 c1461 -4 1400 -1 1650 -56 519 -113 986 -438 1295 -899 72 -107 183 -326
230 -452 231 -621 177 -1314 -147 -1863 -130 -222 -347 -465 -551 -617 -55
-41 -940 -637 -1967 -1324 l-1867 -1249 -4 -2936 c-2 -2739 -4 -2945 -20
-3071 -108 -824 -456 -1446 -1097 -1961 -506 -407 -1212 -738 -2055 -964 -313
-84 -394 -111 -533 -180 -133 -66 -324 -188 -452 -289 -221 -176 -382 -331
-1165 -1127 -192 -196 -402 -403 -465 -459 -511 -455 -965 -722 -1421 -834
-185 -45 -307 -59 -529 -59 -372 0 -597 41 -1220 223 -618 180 -854 228 -1238
250 -408 24 -757 -42 -1157 -219 -188 -84 -355 -176 -775 -426 -195 -117 -404
-239 -465 -272 -520 -286 -942 -431 -1451 -500 -183 -25 -695 -25 -878 0 -557
75 -1018 245 -1636 600 -58 33 -220 129 -360 212 -427 254 -653 371 -875 453
-313 116 -536 156 -855 155 -416 -2 -739 -61 -1345 -243 -449 -135 -654 -184
-895 -214 -452 -55 -820 -10 -1214 149 -214 86 -371 170 -586 316 -324 220
-511 388 -1215 1094 -628 630 -703 701 -919 874 -289 230 -531 363 -881 482
-989 336 -1686 686 -2200 1103 -133 109 -366 339 -459 456 -368 460 -557 963
-596 1585 -6 100 -10 1231 -10 3000 l-1 2840 -1851 1235 c-1018 679 -1892
1266 -1942 1305 -702 536 -991 1416 -752 2287 224 815 871 1414 1681 1558 204
36 351 40 1622 40 l1242 0 4 2678 c4 2710 4 2739 42 3247 168 2236 856 4404
2011 6332 1266 2114 3068 3887 5199 5115 294 169 505 282 830 443 1784 881
3719 1379 5730 1474 255 12 1052 12 1312 1z"/>
<path d="M20360 33779 c-706 -81 -1355 -622 -1769 -1474 -234 -479 -373 -989
-443 -1625 -18 -158 -17 -853 0 -1020 76 -722 276 -1369 582 -1884 589 -992
1466 -1421 2329 -1140 498 162 970 586 1311 1179 294 509 480 1125 557 1835
25 234 25 805 -1 1045 -63 602 -208 1131 -441 1610 -488 1005 -1301 1569
-2125 1474z"/>
<path d="M27600 33779 c-861 -99 -1615 -870 -1994 -2037 -96 -295 -174 -670
-213 -1022 -26 -237 -26 -875 0 -1105 91 -793 329 -1485 698 -2030 639 -943
1581 -1273 2437 -855 224 110 412 251 617 461 659 678 1045 1778 1045 2979 0
581 -88 1130 -261 1637 -122 357 -250 623 -435 905 -496 754 -1194 1147 -1894
1067z"/>
</g>
</svg>
