<svg xmlns="http://www.w3.org/2000/svg" fill="none" viewBox="0 0 32 32" id="Es-Spain--Streamline-Flagpack" height="24" width="24">
  <desc>
    ES Spain Streamline Icon: https://streamlinehq.com
  </desc>
  <path fill="#ffb400" fill-rule="evenodd" d="M0 4v24h32V4H0Z" clip-rule="evenodd"></path>
  <mask id="a" width="32" height="24" x="0" y="4" maskUnits="userSpaceOnUse" style="mask-type:luminance">
    <path fill="#ffffff" fill-rule="evenodd" d="M0 4v24h32V4H0Z" clip-rule="evenodd"></path>
  </mask>
  <g mask="url(#a)">
    <path fill="#c51918" fill-rule="evenodd" d="M0 4v6h32V4H0Zm0 18v6h32v-6H0Z" clip-rule="evenodd"></path>
    <path fill="#f1f9ff" d="M5.008 14.272h1.12v5.824h-1.12z"></path>
    <path fill="#c88a02" fill-rule="evenodd" d="M6.576 13.264H4.56v.56h.336v.448H6.24v-.448h.336v-.56Zm-.336 7.168h.336v.56H4.56v-.56h.336v-.448H6.24v.448Z" clip-rule="evenodd"></path>
    <path fill="#ad1619" fill-rule="evenodd" d="M5.568 13.376c.243 0 .268-.092.412-.229.112-.106.372-.238.372-.387 0-.34-.351-.616-.784-.616-.433 0-.784.276-.784.616 0 .166.179.277.314.387.143.117.248.229.47.229Z" clip-rule="evenodd"></path>
    <path fill="#005bbf" fill-rule="evenodd" d="M4.56 20.992h2.016v.896s-.252-.112-.504-.112-.504.112-.504.112-.252-.112-.504-.112-.504.112-.504.112v-.896Z" clip-rule="evenodd"></path>
    <mask id="b" width="3" height="2" x="4" y="20" maskUnits="userSpaceOnUse" style="mask-type:luminance">
      <path fill="#ffffff" fill-rule="evenodd" d="M4.56 20.992h2.016v.896s-.252-.112-.504-.112-.504.112-.504.112-.252-.112-.504-.112-.504.112-.504.112v-.896Z" clip-rule="evenodd"></path>
    </mask>
    <g mask="url(#b)">
      <path fill="#ffffff" d="m4.542 21.712-.044-.107c.181-.081.363-.122.546-.122.118 0 .18.017.284.063a.49.49 0 0 0 .24.054.49.49 0 0 0 .24-.054.593.593 0 0 1 .284-.063c.183 0 .365.04.547.122l-.044.107a1.227 1.227 0 0 0-.503-.112.49.49 0 0 0-.24.054.593.593 0 0 1-.284.063.593.593 0 0 1-.284-.063.49.49 0 0 0-.24-.054c-.167 0-.334.037-.502.112Zm0-.336-.044-.107c.181-.081.363-.121.546-.121.118 0 .18.016.284.063a.49.49 0 0 0 .24.053.49.49 0 0 0 .24-.053.593.593 0 0 1 .284-.063c.183 0 .365.04.547.12l-.044.108a1.227 1.227 0 0 0-.503-.112.49.49 0 0 0-.24.054.593.593 0 0 1-.284.063.593.593 0 0 1-.284-.063.49.49 0 0 0-.24-.054c-.167 0-.334.037-.502.112Z"></path>
    </g>
    <path fill="#f1f9ff" d="M15.984 14.272h1.12v5.824h-1.12z"></path>
    <path fill="#c88a02" fill-rule="evenodd" d="M17.552 13.264h-2.016v.56h.336v.448h1.344v-.448h.336v-.56Zm-.336 7.168h.336v.56h-2.016v-.56h.336v-.448h1.344v.448Z" clip-rule="evenodd"></path>
    <path fill="#ad1619" fill-rule="evenodd" d="M16.544 13.376c.244 0 .268-.092.412-.229.112-.106.372-.238.372-.387 0-.34-.351-.616-.784-.616-.433 0-.784.276-.784.616 0 .166.179.277.314.387.143.117.248.229.47.229Z" clip-rule="evenodd"></path>
    <path fill="#005bbf" fill-rule="evenodd" d="M15.536 20.992h2.016v.896s-.252-.112-.504-.112-.504.112-.504.112-.252-.112-.504-.112-.504.112-.504.112v-.896Z" clip-rule="evenodd"></path>
    <mask id="c" width="3" height="2" x="15" y="20" maskUnits="userSpaceOnUse" style="mask-type:luminance">
      <path fill="#ffffff" fill-rule="evenodd" d="M15.536 20.992h2.016v.896s-.252-.112-.504-.112-.504.112-.504.112-.252-.112-.504-.112-.504.112-.504.112v-.896Z" clip-rule="evenodd"></path>
    </mask>
    <g mask="url(#c)">
      <path fill="#ffffff" d="m15.518 21.712-.044-.107c.181-.081.363-.122.546-.122.118 0 .18.017.284.063a.49.49 0 0 0 .24.054.49.49 0 0 0 .24-.054.593.593 0 0 1 .285-.063c.182 0 .364.04.546.122l-.044.107a1.227 1.227 0 0 0-.503-.112.49.49 0 0 0-.24.054.593.593 0 0 1-.284.063.593.593 0 0 1-.284-.063.49.49 0 0 0-.24-.054c-.167 0-.334.037-.502.112Zm0-.336-.044-.107c.181-.081.363-.121.546-.121.118 0 .18.016.284.063a.49.49 0 0 0 .24.053.49.49 0 0 0 .24-.053.593.593 0 0 1 .285-.063c.182 0 .364.04.546.12l-.044.108a1.227 1.227 0 0 0-.503-.112.49.49 0 0 0-.24.054.593.593 0 0 1-.284.063.593.593 0 0 1-.284-.063.491.491 0 0 0-.24-.054c-.167 0-.334.037-.502.112Z"></path>
    </g>
    <path fill="#ad1619" fill-rule="evenodd" d="M16.706 18.976c0 .236.113.46.315.704l.687-.567.066-.02.037-.287c.067-.53-.16-.823-.625-1.035l-.032-.014c-.064-.028-.204-.09-.25-.112a1.597 1.597 0 0 1-.256-.149 2.868 2.868 0 0 0-.252-.162c.577-.092.889-.16 1.128-.264.573-.247.646-.82.096-1.198-.75-.517-2.758-.563-3.64-.108l.412.796c.432-.223 1.415-.265 2.104-.15a21.476 21.476 0 0 1-.69.11l-.057.008c-.275.043-.463.097-.602.192a.535.535 0 0 0-.123.798c.085.109.197.19.366.288.055.031.113.063.192.105l.04.022.152.08c.162.087.268.15.347.208.123.09.25.163.395.232.077.037.3.134.299.134l.013.006a.632.632 0 0 0-.122.383Zm-11.718.704c.202-.245.315-.468.315-.704a.633.633 0 0 0-.123-.383l.014-.006c-.002 0 .221-.097.299-.134a2.47 2.47 0 0 0 .395-.232c.079-.058.185-.12.346-.207l.152-.08.04-.023a5.6 5.6 0 0 0 .192-.105c.17-.098.28-.18.366-.288a.535.535 0 0 0-.123-.798c-.139-.095-.327-.149-.602-.192l-.057-.008-.336-.053a21.29 21.29 0 0 1-.354-.058c.689-.114 1.672-.072 2.105.151l.41-.796c-.88-.455-2.889-.409-3.639.108-.55.379-.476.951.096 1.198.24.103.551.172 1.128.264a2.867 2.867 0 0 0-.251.162 1.597 1.597 0 0 1-.256.15 13.6 13.6 0 0 1-.25.11l-.032.015c-.467.212-.693.505-.625 1.035l.036.287.066.02.688.567Zm-.577-.74-.001.003.001-.003Z" clip-rule="evenodd"></path>
    <path fill="#f1f9ff" d="m5.923 16.4.33.068v.493c-.351.281-1.245.755-1.245.755V16.4h.915Zm10.392 0-.331.068v.493c.352.281 1.246.755 1.246.755V16.4h-.915Z"></path>
    <path fill="#ad1619" fill-rule="evenodd" d="M14.776 11.206v-.164c-.576-.413-1.18-.62-1.81-.62a3.613 3.613 0 0 0-1.836-.311v-.003c-.93-.091-1.869.314-1.869.314-.945 0-1.81.62-1.81.62v.164l1.13 1.135s.318 1.092 2.545.835v.003s1.474-.04 1.578-.075l.127-.039c.29-.084.619-.18.815-.724l1.13-1.135Zm-3.65-1.045c-.032.378-.216 2.655 0 3.008V10.16Z" clip-rule="evenodd"></path>
    <path fill="#c88a02" fill-rule="evenodd" d="m8.313 12.15.001-.004-.794-.748.076-.081.746.701.02-.087a.948.948 0 0 0 .262.03v-.152l.166.09c.08.044.197.056.35.03.113-.018.19-.149.214-.427l.05-.563.169.54c.076.243.192.351.357.351.162 0 .227-.06.234-.209l.02-.423.192.378c.069.136.164.198.3.198.193 0 .322-.161.322-.414h.228c0 .253.129.414.322.414.135 0 .23-.061.3-.198l.191-.378.02.423c.008.15.072.209.234.209.165 0 .282-.108.358-.352l.168-.539.05.563c.025.278.101.41.214.428.153.025.27.013.35-.031l.166-.09v.152a.948.948 0 0 0 .263-.03l.036.163.825-.777.077.082-1.027.966c-.15.276-.226.458-.226.534 0 .115-.3.184-.886.254-.46.055-1.002.092-1.445.098h-.112a14.474 14.474 0 0 1-1.445-.098c-.586-.07-.887-.139-.887-.254a.236.236 0 0 0-.008-.054.88.88 0 0 1-.128-.31 5.632 5.632 0 0 0-.09-.17l-.227-.214-.006-.001Zm5.506.018c-.184.032-.316.029-.386-.028a.878.878 0 0 1-.386.01c-.158-.025-.267-.13-.333-.303a.513.513 0 0 1-.325.2c.717.1 1.219.244 1.219.244s-.013.106-.043.23c.032-.065.07-.137.114-.217l.01-.014.13-.122Zm-1.768-.164a.36.36 0 0 1-.148-.134.499.499 0 0 1-.182.103c.113.008.223.019.33.03Zm-.725-.053a.512.512 0 0 1-.214-.188.513.513 0 0 1-.212.187l.154-.003h.09c.06 0 .121.002.182.004Zm-2.704.33-.104-.097c.125.012.218 0 .273-.044.11.032.238.035.386.01.157-.025.266-.13.332-.303a.514.514 0 0 0 .314.197c-.618.087-1.079.205-1.201.238Zm1.876-.31a9.837 9.837 0 0 0-.319.03.358.358 0 0 0 .142-.131.48.48 0 0 0 .177.101Zm2.755.93c.078.037.141 0 .19-.07a.362.362 0 0 0-.007.053.187.187 0 0 1-.03.015 1.094 1.094 0 0 1-.167.048 6.016 6.016 0 0 1-.592.095c-.474.057-1.039.095-1.487.098a14.174 14.174 0 0 1-1.488-.098 6.16 6.16 0 0 1-.592-.095 1.268 1.268 0 0 1-.147-.04.17.17 0 0 0 .012-.006c.245-.114 1.862-.222 2.154-.24.291.018 1.91.126 2.154.24Zm.308-.02-.001.001.001-.001Z" clip-rule="evenodd"></path>
    <path fill="#005bbf" fill-rule="evenodd" d="M11.112 9.347a.336.336 0 1 0 0-.672.336.336 0 0 0 0 .672Z" clip-rule="evenodd"></path>
    <path fill="#c88a02" fill-rule="evenodd" d="M10.893 10.997a.45.45 0 0 0 .032.102.424.424 0 0 0-.15-.027c-.154 0-.28.076-.28.168 0 .093.126.168.28.168.155 0 .28-.075.28-.168 0 .093.126.168.28.168.155 0 .28-.075.28-.168 0-.092-.125-.168-.28-.168a.445.445 0 0 0-.11.014.424.424 0 0 0-.002-.153c-.03-.152-.127-.26-.219-.243-.09.018-.14.155-.111.307Zm.162.243v-.005.005Zm-1.81-.03a.446.446 0 0 1-.032-.101c-.03-.152.02-.29.112-.307.09-.018.188.09.218.243.01.054.01.107.003.153a.445.445 0 0 1 .11-.014c.154 0 .28.076.28.168 0 .093-.126.168-.28.168-.155 0-.28-.075-.28-.168v-.005.005c0 .093-.126.168-.28.168-.155 0-.28-.075-.28-.168 0-.092.125-.168.28-.168.055 0 .106.01.15.027Zm3.508.103c-.013.092-.147.149-.3.127-.153-.021-.267-.113-.254-.205.013-.092.147-.149.3-.127a.424.424 0 0 1 .146.046.446.446 0 0 1-.019-.105c-.008-.154.06-.283.154-.288.092-.005.174.116.182.27a.425.425 0 0 1-.018.153.442.442 0 0 1 .11.002c.153.021.267.113.254.205-.013.092-.148.149-.3.127-.154-.021-.268-.113-.255-.205Zm0 0v-.005h.001v.005Zm1.067.444c.136.073.282.065.326-.017l.002-.004a.11.11 0 0 0 .048.03c.088.027.197-.07.242-.219.045-.148.01-.29-.079-.317-.088-.027-.197.071-.242.219a.446.446 0 0 0-.02.105.426.426 0 0 0-.12-.093c-.136-.073-.282-.066-.326.016-.043.082.032.208.169.28Zm-5.496.034c-.136.073-.282.066-.326-.016l-.002-.005a.109.109 0 0 1-.048.03c-.088.027-.197-.07-.242-.218-.045-.148-.01-.29.079-.317.088-.027.197.07.242.218a.447.447 0 0 1 .02.105.424.424 0 0 1 .12-.093c.136-.073.282-.065.326.017.043.082-.032.207-.169.28Zm2.662-3.714h.234v.147h.152v.233h-.152v.467h.152v.233h-.54v-.233h.154v-.467h-.155v-.233h.155v-.147Z" clip-rule="evenodd"></path>
    <path fill="#c88a02" d="M10.943 9.344h.448V10.8h-.448z"></path>
    <path fill="#ffffff" d="m9.14 9.588-.002.112c-.993-.018-1.563.127-1.707.416-.15.299-.122.662.088 1.093l-.101.05c-.224-.461-.254-.86-.087-1.193.171-.343.774-.496 1.81-.478Z"></path>
    <path fill="#ffffff" d="m9.332 10.58-.057.097c-.217-.129-.325-.35-.325-.653 0-.437.225-.693.722-.868.318-.111.751-.066 1.302.134l-.038.105c-.529-.191-.938-.235-1.226-.133-.457.16-.648.378-.648.762 0 .266.09.45.27.557Z"></path>
    <path fill="#c88a02" d="m7.66 11.037-.212.075c-.219-.625-.156-1.049.219-1.232.33-.16.81-.226 1.445-.2l-.009.223c-.6-.024-1.047.037-1.338.179-.246.12-.292.425-.105.955Z"></path>
    <path fill="#c88a02" d="M10.129 9.439c-.512 0-.723.125-.843.493-.076.235-.002.435.239.622l-.138.177c-.311-.242-.421-.539-.314-.869.153-.469.454-.647 1.056-.647.395 0 .702.104.916.314l.033.033v1.08h-.224v-.984c-.167-.145-.407-.22-.725-.22Z"></path>
    <path fill="#ffffff" d="m13.049 9.7.002.112c.993-.018 1.563.127 1.707.416.15.299.122.662-.088 1.093l.101.049c.224-.46.254-.859.087-1.192-.171-.343-.774-.496-1.81-.478Z"></path>
    <path fill="#ffffff" d="m12.698 10.604.058.097c.216-.13.324-.35.324-.654 0-.436-.225-.692-.722-.867-.318-.112-.751-.066-1.302.134l.038.105c.529-.192.938-.235 1.227-.134.456.161.647.379.647.762 0 .267-.09.45-.27.557Z"></path>
    <path fill="#c88a02" d="m14.599 11.15.211.073c.22-.624.157-1.048-.218-1.23-.33-.162-.811-.228-1.446-.202l.01.224c.6-.024 1.047.037 1.338.178.246.12.291.426.105.956Z"></path>
    <path fill="#c88a02" d="M12.117 9.456c.512 0 .722.125.842.493.077.235.003.435-.238.622l.137.177c.312-.242.422-.539.314-.869-.153-.469-.453-.647-1.055-.647-.395 0-.702.104-.916.315l-.034.032v1.08h.224v-.984c.168-.145.408-.22.726-.22Z"></path>
    <path fill="#e1e5e8" fill-rule="evenodd" d="M7.472 13.264h7.28v6.541S14.21 22 11.112 22c-3.1 0-3.64-2.253-3.64-2.253v-6.483Z" clip-rule="evenodd" opacity=".3"></path>
    <mask id="d" width="8" height="9" x="7" y="13" maskUnits="userSpaceOnUse" style="mask-type:luminance">
      <path fill="#ffffff" fill-rule="evenodd" d="M7.472 13.264h7.28v6.541S14.21 22 11.112 22c-3.1 0-3.64-2.253-3.64-2.253v-6.483Z" clip-rule="evenodd"></path>
    </mask>
    <g mask="url(#d)">
      <path fill="#ffc034" d="M7.472 17.296h3.696v4.368H7.472z"></path>
      <path fill="#ad1619" d="M7.92 17.52h.448v4.144H7.92zm1.568 0h.448v4.144h-.448zm-.784 0h.448v4.144h-.448zm1.567 0h.448v4.144h-.448zm-2.799-4.368h3.696v4.256H7.472z"></path>
      <path fill="#ad1619" d="M11.056 17.184h3.696v4.256h-3.696z"></path>
      <path fill="#f1f9ff" d="M11.056 13.264h3.92v4.144h-3.92z"></path>
      <path fill="#c88a02" fill-rule="evenodd" d="M9.04 13.6h.336v.93H9.6v-.465h.336v.464h.336v.581h-.336v1.045h.336v.581H8.256v-.58h.336V15.11h-.336v-.58h.224v-.465h.336v.464h.224V13.6Z" clip-rule="evenodd"></path>
      <path fill="#c88a02" d="m12.979 13.795.229-.245.481.45-.229.245-.482-.45Z"></path>
      <path fill="#ffc034" fill-rule="evenodd" d="M14.36 20.14v-2.452h-2.8v2.431l.004.02c.142.603.624.909 1.396.909.77 0 1.253-.298 1.395-.888l.005-.02Zm-1.4.572c-.62 0-.957-.208-1.064-.632v-2.056h2.128v2.075c-.108.41-.445.613-1.064.613Z" clip-rule="evenodd"></path>
      <path fill="#ffc034" fill-rule="evenodd" d="M13.075 17.893h-.233v1.112l-.92-1-.165.15.832.906h-.754v.336h.773l-.85.924.164.152.92-1v1.299h.233V19.59l.813.883.165-.152-.85-.924h.948v-.336h-.93l.832-.905-.165-.152-.813.884v-.995Z" clip-rule="evenodd"></path>
      <path fill="#f1f9ff" fill-rule="evenodd" d="M13.482 21.443s-2.372.187-2.372-1.343c0 0-.023 1.343-2.5 1.343v1.208h4.872v-1.208Z" clip-rule="evenodd"></path>
      <path fill="#005bbf" fill-rule="evenodd" stroke="#ad1619" stroke-width="1.167" d="M11.111 18.192c.464 0 .84-.4.84-.896 0-.494-.376-.896-.84-.896-.463 0-.84.402-.84.896 0 .495.377.896.84.896Z" clip-rule="evenodd"></path>
    </g>
  </g>
</svg>