<svg xmlns="http://www.w3.org/2000/svg" fill="none" viewBox="0 0 24 24" id="Us-United-States--Streamline-Flagpack" height="24" width="24">
  <desc>
    US United States Streamline Icon: https://streamlinehq.com
  </desc>
  <path fill="#f7fcff" fill-rule="evenodd" d="M0 3h24v18H0V3Z" clip-rule="evenodd" stroke-width="0.75"></path>
  <path fill="#e31d1c" fill-rule="evenodd" d="M0 13.999500000000001v1.5h24v-1.5H0Zm0 2.7510000000000003v1.5h24v-1.5H0Zm0 -8.25v1.5h24v-1.5H0ZM0 19.5v1.5h24v-1.5H0Zm0 -8.25v1.5h24v-1.5H0ZM0 3v1.5h24V3H0Zm0 2.75025v1.5h24v-1.5H0Z" clip-rule="evenodd" stroke-width="0.75"></path>
  <path fill="#2e42a5" d="M0 3h15v9.75H0z" stroke-width="0.75"></path>
  <path fill="#f7fcff" fill-rule="evenodd" d="m1.2915 5.20425 -0.5445 0.38175000000000003 0.18375 -0.6795 -0.48375 -0.4305h0.63225l0.21149999999999997 -0.55425 0.24825000000000003 0.5549999999999999h0.5385l-0.42299999999999993 0.42974999999999997 0.1635 0.6795 -0.5265 -0.3825Zm3 0 -0.5445 0.38175000000000003 0.18375 -0.6795 -0.48375 -0.4305h0.63225l0.21149999999999997 -0.55425 0.24825000000000003 0.5549999999999999h0.5385l-0.42299999999999993 0.42974999999999997 0.1635 0.6795 -0.5265 -0.3825Zm2.4555 0.38175000000000003 0.5445 -0.3825 0.5265 0.3825 -0.1635 -0.6795 0.42299999999999993 -0.4305h-0.5385l-0.24825000000000003 -0.55425 -0.21149999999999997 0.5549999999999999h-0.63225l0.48375 0.42974999999999997 -0.18375 0.6795Zm3.5445 -0.3825 -0.5445 0.3825 0.18375 -0.6795 -0.48375 -0.4305h0.6315l0.21225 -0.55425 0.24825000000000003 0.5549999999999999h0.5385l-0.42299999999999993 0.42974999999999997 0.1635 0.6795 -0.5265 -0.3825ZM0.747 8.58675l0.5445 -0.3825 0.5265 0.3825 -0.1635 -0.6795 0.42299999999999993 -0.4305h-0.5385l-0.24825000000000003 -0.55425 -0.21149999999999997 0.5549999999999999H0.44699999999999995l0.48375 0.42974999999999997 -0.18375 0.6795Zm3.5445 -0.3825 -0.5445 0.3825 0.18375 -0.6795 -0.48375 -0.4305h0.63225l0.21149999999999997 -0.55425 0.24825000000000003 0.5549999999999999h0.5385l-0.42299999999999993 0.42974999999999997 0.1635 0.6795 -0.5265 -0.3825Zm2.4555 0.3825 0.5445 -0.3825 0.5265 0.3825 -0.1635 -0.6795 0.42299999999999993 -0.4305h-0.5385l-0.24825000000000003 -0.55425 -0.21149999999999997 0.5549999999999999h-0.63225l0.48375 0.42974999999999997 -0.18375 0.6795Zm3.5445 -0.3825 -0.5445 0.3825 0.18375 -0.6795 -0.48375 -0.4305h0.6315l0.21225 -0.55425 0.24825000000000003 0.5549999999999999h0.5385l-0.42299999999999993 0.42974999999999997 0.1635 0.6795 -0.5265 -0.3825ZM0.747 11.58675l0.5445 -0.3825 0.5265 0.3825 -0.1635 -0.6795 0.42299999999999993 -0.4305h-0.5385l-0.24825000000000003 -0.55425 -0.21149999999999997 0.5549999999999999H0.44699999999999995l0.48375 0.42974999999999997 -0.18375 0.6795Zm3.5445 -0.3825 -0.5445 0.3825 0.18375 -0.6795 -0.48375 -0.4305h0.63225l0.21149999999999997 -0.55425 0.24825000000000003 0.5549999999999999h0.5385l-0.42299999999999993 0.42974999999999997 0.1635 0.6795 -0.5265 -0.3825Zm2.4555 0.3825 0.5445 -0.3825 0.5265 0.3825 -0.1635 -0.6795 0.42299999999999993 -0.4305h-0.5385l-0.24825000000000003 -0.55425 -0.21149999999999997 0.5549999999999999h-0.63225l0.48375 0.42974999999999997 -0.18375 0.6795Zm3.5445 -0.3825 -0.5445 0.3825 0.18375 -0.6795 -0.48375 -0.4305h0.6315l0.21225 -0.55425 0.24825000000000003 0.5549999999999999h0.5385l-0.42299999999999993 0.42974999999999997 0.1635 0.6795 -0.5265 -0.3825Zm2.4555 -5.6175 0.5445 -0.3825 0.5265 0.3825 -0.1635 -0.6795 0.42299999999999993 -0.4305h-0.5385l-0.24825000000000003 -0.55425 -0.21149999999999997 0.5549999999999999h-0.63225l0.48375 0.42974999999999997 -0.18375 0.6795Zm0.5445 2.6175 -0.5445 0.3825 0.18375 -0.6795 -0.48375 -0.4305h0.63225l0.21149999999999997 -0.55425 0.24825000000000003 0.5549999999999999h0.5385l-0.42299999999999993 0.42974999999999997 0.1635 0.6795 -0.5265 -0.3825Zm-0.5445 3.3825 0.5445 -0.3825 0.5265 0.3825 -0.1635 -0.6795 0.42299999999999993 -0.4305h-0.5385l-0.24825000000000003 -0.55425 -0.21149999999999997 0.5549999999999999h-0.63225l0.48375 0.42974999999999997 -0.18375 0.6795ZM2.7915 6.7035l-0.5445 0.3825 0.18375 -0.6795 -0.48375 -0.4305h0.63225l0.21149999999999997 -0.55425 0.24825000000000003 0.5549999999999999h0.5385l-0.42299999999999993 0.42974999999999997 0.1635 0.6795 -0.5265 -0.3825Zm2.4555 0.3825 0.5445 -0.3825 0.5265 0.3825 -0.1635 -0.6795 0.42299999999999993 -0.4305h-0.5385l-0.24825000000000003 -0.55425 -0.21149999999999997 0.5549999999999999h-0.63225l0.48375 0.42974999999999997 -0.18375 0.6795Zm3.5445 -0.3825 -0.5445 0.3825 0.18375 -0.6795 -0.48375 -0.4305h0.6315l0.21225 -0.55425 0.24825000000000003 0.5549999999999999h0.5385l-0.42299999999999993 0.42974999999999997 0.1635 0.6795 -0.5265 -0.3825Zm-6.544500000000001 3.3825 0.5445 -0.3825 0.5265 0.3825 -0.1635 -0.6795 0.42299999999999993 -0.4305h-0.5385l-0.24825000000000003 -0.55425 -0.21149999999999997 0.5549999999999999h-0.63225l0.48375 0.42974999999999997 -0.18375 0.6795Zm3.5445 -0.3825 -0.5445 0.3825 0.18375 -0.6795 -0.48375 -0.4305h0.63225l0.21149999999999997 -0.55425 0.24825000000000003 0.5549999999999999h0.5385l-0.42299999999999993 0.42974999999999997 0.1635 0.6795 -0.5265 -0.3825Zm2.4555 0.3825 0.5445 -0.3825 0.5265 0.3825 -0.1635 -0.6795 0.42299999999999993 -0.4305h-0.5385l-0.24825000000000003 -0.55425 -0.21225 0.5549999999999999h-0.6315l0.48375 0.42974999999999997 -0.18375 0.6795Zm3.5445 -3.3825 -0.5445 0.3825 0.18375 -0.6795 -0.48375 -0.4305h0.6315l0.21225 -0.55425 0.24825000000000003 0.5549999999999999h0.5385l-0.42299999999999993 0.42974999999999997 0.1635 0.6795 -0.5265 -0.3825Zm-0.5445 3.3825 0.5445 -0.3825 0.5265 0.3825 -0.1635 -0.6795 0.42299999999999993 -0.4305h-0.5385l-0.24825000000000003 -0.55425 -0.21225 0.5549999999999999h-0.6315l0.48375 0.42974999999999997 -0.18375 0.6795Z" clip-rule="evenodd" stroke-width="0.75"></path>
</svg>